<?xml version="1.0" encoding="UTF-8"?>
<svg width="1442px" height="532px" viewBox="0 0 1442 532" version="1.1" xmlns="http://www.w3.org/2000/svg" xmlns:xlink="http://www.w3.org/1999/xlink">
    <!-- Generator: Sketch 43.2 (39069) - http://www.bohemiancoding.com/sketch -->
    <title>inspire-bg</title>
    <desc>Created with Sketch.</desc>
    <defs></defs>
    <g id="Page-1" stroke="none" stroke-width="1" fill="none" fill-rule="evenodd">
        <g id="Desktop-HD" transform="translate(1.000000, -2154.000000)" fill-rule="nonzero">
            <g id="Group-14" transform="translate(-1.000000, 2154.000000)">
                <g id="Group-15">
                    <path d="M1380.17757,127.640256 C1381.77479,125.009318 1381.47841,121.759909 1379.7401,119.259408 C1377.89797,116.608061 1374.70885,115.435009 1371.58362,115.293923 C1367.6376,115.116457 1363.97552,116.700344 1360.31699,117.943496 C1358.55295,118.543332 1356.35588,119.416466 1354.67259,118.193723 C1353.23243,117.146672 1352.68493,115.134203 1352.36904,113.470457 C1351.77807,110.35326 1351.92359,107.018668 1350.156,104.236883 C1348.51796,101.658297 1345.72814,100.365455 1342.71827,100.31399 C1339.15735,100.253651 1335.98598,101.827777 1332.906,103.425862 C1329.83401,105.019509 1326.20831,106.913963 1322.7104,105.443654 C1320.49203,104.511956 1320.07232,102.464882 1319.98358,100.258088 C1319.88686,97.8099395 1320.01198,95.3458194 1319.85936,92.9021079 C1319.65172,89.5657408 1317.23192,85.9436528 1313.52371,87.8940079 C1311.50056,88.9570312 1313.293,92.0209876 1315.31437,90.9579642 C1316.42533,90.3740999 1316.35079,95.0698592 1316.36055,95.7158367 C1316.39161,97.7167697 1316.32151,99.7585199 1316.5256,101.751467 C1316.80245,104.455167 1317.94979,106.851849 1320.36514,108.241411 C1326.08586,111.531637 1331.87047,107.728533 1337.02861,105.307892 C1339.61788,104.093135 1343.18679,102.992844 1345.82043,104.719591 C1348.47625,106.461423 1348.37243,110.439331 1348.76109,113.224666 C1349.57035,119.026928 1353.11885,123.612658 1359.45361,121.934714 C1363.3668,120.89831 1367.08655,118.731446 1371.24022,118.828165 C1374.6849,118.908912 1379.54134,121.84953 1377.11267,125.847846 C1375.92363,127.806187 1378.99207,129.591499 1380.17757,127.640256" id="Fill-12" fill="#1CFFB8"></path>
                    <path d="M1261.18137,231.056027 C1264.25869,230.995688 1267.87906,231.261888 1270.87296,230.438444 C1273.28832,229.77472 1274.78083,227.836787 1274.22624,225.29547 C1273.5492,222.193358 1271.7115,219.009612 1270.32991,216.163939 C1268.76463,212.942925 1267.05028,209.793785 1265.19306,206.731603 C1263.96853,204.712924 1262.50263,201.322429 1259.56463,202.050041 C1257.08095,202.664075 1254.89719,205.714721 1253.56085,207.704119 C1251.94943,210.102576 1250.80564,212.799177 1249.84464,215.514412 C1248.86945,218.273127 1247.48253,221.570451 1247.46035,224.52704 C1247.40711,231.839541 1256.19981,231.148309 1261.18137,231.056027 C1263.46274,231.013435 1263.46984,227.464108 1261.18137,227.5067 C1259.00205,227.547517 1256.78635,227.858083 1254.6159,227.548405 C1253.30884,227.362952 1251.685,226.876695 1251.14904,225.498668 C1250.62906,224.158798 1251.41702,222.387684 1251.80035,221.082419 C1253.2627,216.097389 1254.92292,210.777836 1258.6693,206.992479 C1259.02512,206.633997 1259.52647,205.948089 1260.00475,205.808778 C1260.27096,205.436099 1260.41559,205.441423 1260.43955,205.823863 C1260.65518,206.158387 1260.86903,206.493798 1261.0811,206.830984 C1261.85931,208.065263 1262.61444,209.313738 1263.34472,210.577299 C1264.80707,213.102645 1266.17358,215.683893 1267.43893,218.313944 C1268.12929,219.747872 1268.79125,221.195997 1269.42127,222.657432 C1269.78508,223.502172 1271.28114,225.932574 1270.49318,226.815469 C1269.84542,227.541306 1267.28542,227.227191 1266.44954,227.262684 C1264.69171,227.33722 1262.94009,227.472094 1261.18137,227.5067 C1258.90089,227.551067 1258.89291,231.101281 1261.18137,231.056027" id="Fill-22" fill="#FFB3F4"></path>
                    <path d="M1360.4532,266.002952 C1362.82951,266.946185 1365.21204,267.87256 1367.57149,268.858385 C1369.80316,269.790971 1372.17149,271.253293 1374.64275,271.34735 C1376.91968,271.434309 1378.63314,270.108635 1378.8887,267.805122 C1379.27824,264.306373 1378.69348,260.411875 1378.32523,256.926436 C1378.07056,254.519992 1377.92504,251.704489 1376.08557,249.901431 C1374.05266,247.907597 1371.22203,248.502109 1368.74101,249.104607 C1365.51551,249.888121 1362.35656,250.92275 1359.28812,252.18631 C1356.73877,253.235136 1353.67566,254.282187 1351.74124,256.34967 C1350.05795,258.147404 1349.8015,260.900794 1351.66404,262.683444 C1352.63302,263.611593 1353.99687,264.070343 1355.28885,264.300162 C1357.05023,264.61339 1358.39012,265.111183 1360.02905,265.823711 C1362.10278,266.724352 1363.91208,263.668382 1361.8206,262.758867 C1360.78596,262.309877 1359.80455,261.722464 1358.73885,261.346235 C1357.6412,260.959358 1356.48144,261.017922 1355.37137,260.702032 C1351.73237,259.667403 1356.37585,257.36389 1357.74325,256.717913 C1360.48603,255.424183 1363.32554,254.346963 1366.22805,253.467617 C1368.10478,252.898837 1372.71898,250.843777 1373.99587,253.0275 C1375.23816,255.153547 1374.97816,258.743691 1375.137,261.134163 C1375.22928,262.538809 1375.29583,263.94523 1375.33221,265.35165 C1375.3473,265.94705 1375.61705,267.432443 1374.90984,267.81577 C1374.60637,267.979927 1373.77936,267.616121 1373.49807,267.529162 C1369.40918,266.254954 1365.38507,264.1644 1361.39645,262.580513 C1359.27392,261.736661 1358.35197,265.16886 1360.4532,266.002952" id="Fill-26" fill="#FFB3F4"></path>
                    <path d="M1389.21943,470.459484 C1394.65531,468.518889 1396.21615,461.055542 1390.89208,457.852275 C1388.36758,456.33405 1385.44643,456.83983 1382.67969,457.116677 C1381.33625,457.250664 1379.59084,457.507103 1378.40623,456.673899 C1377.04593,455.717355 1377.02109,453.831775 1377.28818,452.360579 C1377.87826,449.118269 1380.11437,446.444739 1380.57313,443.141203 C1380.96002,440.34877 1380.1197,437.535041 1378.30508,435.375276 C1374.54451,430.90135 1367.80512,430.982984 1363.74285,434.980413 C1362.11191,436.584709 1364.62221,439.094083 1366.25226,437.489787 C1369.99331,433.809136 1376.53748,435.700039 1377.1187,441.159791 C1377.4062,443.854618 1375.7371,446.379076 1374.73883,448.763336 C1373.92603,450.703931 1373.42822,452.768752 1373.69354,454.880601 C1374.2224,459.092765 1377.77178,461.012063 1381.74443,460.749413 C1383.81993,460.611877 1386.38525,459.813278 1388.40485,460.587919 C1391.47684,461.765408 1391.33397,465.945627 1388.27618,467.037045 C1386.13945,467.799263 1387.06052,471.229688 1389.21943,470.459484" id="Fill-38" fill="#1CFFB8"></path>
                    <path d="M1181.19361,443.419536 C1179.37988,445.094818 1177.57591,446.782523 1175.73644,448.429411 C1173.78694,450.173017 1171.08497,451.855398 1170.00241,454.309758 C1168.99794,456.585763 1169.93852,458.550316 1172.06371,459.637297 C1175.05939,461.170606 1178.30264,462.377377 1181.46514,463.515824 C1183.88848,464.388958 1186.85932,465.623237 1189.3776,464.357902 C1192.02811,463.02513 1192.49041,459.766848 1192.9891,457.151881 C1193.62,453.842134 1194.01221,450.479147 1194.1462,447.113498 C1194.24469,444.614772 1194.53308,441.594295 1193.33605,439.281908 C1192.13814,436.969522 1189.47787,436.057345 1187.1761,437.382131 C1185.97197,438.076024 1185.14496,439.180752 1184.38806,440.313875 C1183.51047,441.626239 1182.36846,442.395555 1181.19361,443.419536 C1179.4695,444.923563 1181.98868,447.425838 1183.70303,445.92891 C1184.41734,445.30689 1185.23015,444.782477 1185.91252,444.125852 C1186.72089,443.348549 1187.19562,442.373372 1187.87355,441.49935 C1190.44419,438.186941 1190.65893,443.259816 1190.64651,445.019395 C1190.6261,447.93073 1190.41935,450.849164 1189.98899,453.729443 C1189.68729,455.748122 1189.53821,460.975393 1186.99331,461.324115 C1185.79095,461.487384 1184.3082,460.764208 1183.20434,460.376444 C1181.87598,459.909708 1180.5565,459.417239 1179.24855,458.89815 C1177.69037,458.281454 1176.14551,457.627491 1174.62193,456.927386 C1173.12054,456.236155 1172.77537,455.983265 1174.10372,454.59814 C1177.04794,451.525311 1180.5707,448.822499 1183.70303,445.92891 C1185.38544,444.376079 1182.8707,441.871142 1181.19361,443.419536" id="Fill-73" fill="#FFB3F4"></path>
                    <path d="M1287.68047,371.610837 C1286.45061,373.409458 1286.85968,375.82655 1288.38858,377.339451 C1290.12511,379.058212 1292.79336,378.941972 1294.73931,377.655341 C1299.01365,374.833626 1298.17245,368.607219 1294.62928,365.596503 C1290.59629,362.166966 1284.41061,363.641711 1281.2765,367.554844 C1277.79456,371.901882 1278.05987,378.500968 1281.03248,383.039669 C1284.12488,387.762936 1289.76219,389.740798 1295.12087,387.872078 C1300.76084,385.904863 1304.59417,380.584423 1306.29166,375.030613 C1309.61566,364.159026 1297.39513,352.21909 1286.56686,354.032796 C1280.3581,355.071862 1275.22214,360.043581 1272.85559,365.713631 C1270.19089,372.09887 1271.13591,379.46461 1275.06153,385.118687 C1276.35528,386.982084 1279.43348,385.209195 1278.12642,383.327165 C1273.58588,376.786643 1273.81925,367.97189 1279.34031,362.050726 C1282.05027,359.142052 1286.05486,356.849187 1290.15528,357.488953 C1293.77121,358.054184 1297.28422,360.352373 1299.77145,362.966452 C1302.31103,365.635546 1303.96948,369.176886 1303.18773,372.908116 C1302.3971,376.677501 1300.09976,380.619916 1296.98607,382.926091 C1293.7863,385.296154 1289.1792,385.97585 1285.93595,383.304094 C1283.08402,380.95444 1281.75301,376.890461 1282.46466,373.294993 C1283.2331,369.407593 1287.75324,365.371121 1291.78711,367.884044 C1293.31601,368.836151 1294.42519,370.84507 1294.07025,372.667649 C1293.89988,373.550544 1293.3027,374.591384 1292.4189,374.917035 C1291.4091,375.28794 1289.91037,374.624216 1290.74537,373.40236 C1292.03734,371.512343 1288.96269,369.735018 1287.68047,371.610837" id="Fill-87" fill="#FFED41"></path>
                    <path d="M1187.04728,57.4235795 C1183.61769,52.9736111 1179.81896,59.7501632 1179.87753,63.080319 C1179.94763,67.0919456 1183.99392,69.4975018 1187.70037,68.7477065 C1197.03879,66.8568027 1197.94832,51.1386091 1189.58065,47.414478 C1179.9849,43.1428633 1171.23833,55.9195523 1171.00407,64.2232022 C1170.74674,73.3440847 1182.74809,81.4897896 1191.12996,77.6778127 C1199.52513,73.8587371 1208.08447,60.2710269 1199.62097,52.5024379 C1197.94034,50.9602555 1195.42382,53.4634182 1197.11155,55.011812 C1203.42502,60.8069752 1196.41233,70.0245768 1191.10689,73.6253688 C1184.69315,77.9786181 1173.75662,71.1576994 1174.60048,63.4938156 C1175.02375,59.6392467 1177.42757,55.2966454 1180.2582,52.673693 C1183.18999,49.9575706 1187.96213,48.9752945 1190.55496,52.7091862 C1192.81325,55.9603695 1191.98891,61.5061926 1189.05978,64.147779 C1187.84234,65.2462957 1185.994,65.8239486 1184.5006,64.8682924 C1183.51919,64.2400615 1183.29647,63.2400387 1183.52718,62.1255501 C1183.58486,61.852252 1184.4163,59.5194569 1184.73131,59.6241621 C1184.37726,59.3535259 1184.02409,59.0811151 1183.67004,58.8095916 L1183.98239,59.2151022 C1185.35777,60.9986389 1188.44219,59.2328488 1187.04728,57.4235795" id="Fill-105" fill="#FFED41"></path>
                    <path d="M213.035888,137.079955 C213.581605,139.552948 216.818642,144.421737 214.775085,146.696856 C212.543411,149.181385 207.841366,147.089944 205.123426,146.832618 C199.183534,146.270049 193.673117,150.856667 193.292446,156.85148 C193.069722,160.36975 194.643874,163.592539 195.743295,166.838398 C196.587161,169.328251 197.272192,172.625575 195.645687,174.980553 C193.823079,177.620365 190.460926,176.071971 188.124545,175.109217 C185.617793,174.075475 182.922037,172.978733 180.183688,173.786205 C172.984653,175.90959 172.793874,186.905404 174.992716,192.494706 C175.819722,194.595908 179.25375,193.681069 178.415209,191.551473 C177.024738,188.016343 176.798465,184.137817 178.249275,180.57163 C179.708071,176.987698 182.200625,176.59461 185.537045,177.861719 C188.152053,178.854644 190.746651,180.278811 193.637624,179.962034 C196.128403,179.689623 198.133804,178.118158 199.186196,175.876759 C202.092253,169.688507 197.473619,164.425743 196.871999,158.413184 C196.535695,155.043985 198.494067,151.845154 201.724005,150.69606 C205.131412,149.483965 208.662161,151.556772 212.138781,151.332277 C215.045726,151.14505 217.932261,149.658769 218.753056,146.672011 C219.75132,143.039275 217.213511,139.558272 216.45838,136.136721 C215.96679,133.906857 212.544298,134.85009 213.035888,137.079955" id="Fill-7" fill="#1CFFB8"></path>
                    <path d="M74.2541399,132.105254 C72.8388235,134.233962 71.4377047,136.373319 69.9860071,138.47807 C68.5698034,140.531355 66.5652895,142.620134 66.0053744,145.110874 C65.5084608,147.324767 66.5688389,149.258262 68.7676815,149.893592 C71.9993945,150.827952 75.578947,151.124321 78.9153667,151.497 C81.4194562,151.77651 84.3911769,152.308021 86.6521337,150.859009 C89.068376,149.310615 89.1047571,146.40904 89.0257834,143.837553 C88.9228513,140.469242 88.5554902,137.10448 87.9529824,133.789409 C87.4542942,131.04223 87.0390164,127.636651 85.2261692,125.374843 C83.6671028,123.429812 81.0077278,122.877891 78.9907911,124.507032 C77.9206522,125.371293 77.306609,126.575402 76.8105828,127.830089 C76.1530596,129.491174 75.2834608,130.65979 74.2541399,132.105254 C72.9266707,133.969537 76.0039855,135.744201 77.3190318,133.896776 C77.9401738,133.023642 78.7050658,132.226818 79.2410226,131.29512 C79.8142479,130.297759 79.9704207,129.128256 80.5463081,128.137106 C82.4629747,124.838007 83.7425272,130.956159 84.0335766,132.26941 C84.6653667,135.11597 85.1001661,138.000685 85.3211152,140.908471 C85.4817247,143.008785 86.5199192,147.774644 83.6156368,148.212098 C81.0849269,148.593651 78.1185303,147.887335 75.6188775,147.521754 C74.0873189,147.297259 72.5584223,147.040821 71.0392865,146.744452 C70.4465395,146.628211 69.8360457,146.697423 69.6000118,146.121545 C69.374626,145.569625 69.8032139,144.996408 70.0774037,144.521686 C72.1937232,140.86233 74.9737772,137.424807 77.3190318,133.896776 C78.5870488,131.989013 75.5141707,130.209913 74.2541399,132.105254" id="Fill-20" fill="#FFB3F4"></path>
                    <path d="M278.807346,436.172371 C281.924591,430.929128 277.403565,423.952927 271.178835,425.685885 C268.627716,426.394863 266.876096,428.449036 265.095193,430.26363 C262.88659,432.513903 260.446389,433.6488 258.314985,430.484575 C256.537631,427.843876 256.516335,424.382395 255.102793,421.551807 C253.758465,418.856981 251.19936,416.907513 248.252485,416.289043 C242.264676,415.030806 237.069267,419.52248 236.471196,425.382418 C236.239599,427.652212 239.789869,427.63624 240.020579,425.382418 C240.592917,419.775369 247.922392,417.542843 251.347546,422.162291 C252.905726,424.263493 253.097392,427.095855 253.943033,429.501412 C254.660895,431.541387 255.802909,433.535222 257.58115,434.826289 C261.189985,437.44658 264.864483,435.565436 267.604607,432.773004 C268.854877,431.499683 270.113133,429.798668 271.860317,429.198832 C275.134622,428.072808 277.35831,431.662952 275.742454,434.379961 C274.572932,436.34895 277.640486,438.136036 278.807346,436.172371" id="Fill-40" fill="#1CFFB8"></path>
                    <path d="M160.440247,70.0752669 C163.467871,67.6670487 172.318256,62.0972677 167.133496,57.7333704 C164.769607,55.7430854 161.533457,54.3810313 158.787122,53.0003432 C155.700934,51.4492874 152.542871,50.0393173 149.334229,48.7580104 C147.182415,47.898186 143.830911,45.8795064 141.736775,47.8076781 C139.694992,49.687934 139.829869,53.9586614 140.028634,56.4822327 C140.291289,59.8230365 141.184846,63.0600226 142.297577,66.2091627 C143.210656,68.7948473 144.058959,72.2155109 146.106952,74.1924859 C150.864013,78.7853148 156.71517,73.0407294 160.440247,70.0752669 C162.227361,68.6528742 159.701088,66.1568102 157.930834,67.5658929 C156.476474,68.7238607 155.13392,70.0122663 153.574854,71.0380218 C152.436389,71.7869297 150.946536,72.5819789 149.531219,72.1711443 C148.186003,71.7816057 147.67223,70.3290438 147.190401,69.1701886 C146.072346,66.4824609 145.079406,63.6891407 144.358881,60.8674259 C143.674738,58.1885716 142.814013,54.4129752 143.784769,51.6995149 C144.075818,50.8867191 143.955139,50.7252247 144.919684,50.8592118 C145.558573,50.947945 146.242716,51.3454696 146.85321,51.5788378 C148.251667,52.1147862 149.640363,52.6755798 151.014861,53.270092 C153.66625,54.4174119 156.273272,55.6658876 158.830602,57.0084204 C160.170494,57.7120745 161.496188,58.4423484 162.806798,59.1974677 C164.013588,59.8922484 165.803364,60.6216351 164.36054,62.1460709 C162.490903,64.1230459 160.058688,65.872864 157.930834,67.5658929 C156.143719,68.9865109 158.669992,71.4843496 160.440247,70.0752669" id="Fill-57" fill="#FFB3F4"></path>
                    <path d="M169.125675,294.074157 C166.577219,294.525808 161.426177,297.677611 159.33914,295.180659 C157.121663,292.527538 159.663021,287.877032 159.875097,284.915119 C160.281501,279.245069 155.809279,274.031996 150.171084,273.499597 C146.429148,273.146439 142.980922,274.78889 139.454611,275.741884 C137.048129,276.391411 133.498746,276.71085 131.59539,274.693058 C129.476408,272.448996 131.566995,269.113516 132.585668,266.849933 C133.600791,264.593449 134.551138,262.124004 133.880305,259.623504 C131.938793,252.378441 121.062597,251.768844 115.352527,253.744044 C113.206925,254.485853 114.128878,257.91539 116.295776,257.166482 C119.909047,255.917119 123.897666,255.880739 127.393808,257.564007 C130.880189,259.242838 130.947628,261.848044 129.521663,265.05841 C127.533121,269.534111 125.241107,275.226344 130.627296,278.391456 C136.719811,281.97184 142.498206,277.356828 148.635089,277.008106 C152.012327,276.815555 155.118036,278.997504 156.085243,282.256673 C157.064873,285.55311 155.064796,288.84866 154.992921,292.156633 C154.92282,295.355464 156.444618,298.603985 159.74022,299.459373 C163.253222,300.37155 166.69701,298.092882 170.068924,297.496595 C172.314796,297.09907 171.362674,293.678407 169.125675,294.074157" id="Fill-91" fill="#1CFFB8"></path>
                    <path d="M80.4841437,410.32715 C80.6971067,407.750339 80.8940974,405.170865 81.152315,402.598491 C81.3998845,400.133483 82.1310573,397.374769 81.4185187,394.932832 C80.7450233,392.62577 78.7786653,391.697621 76.5168212,392.204287 C73.1591051,392.958519 69.8049385,394.481181 66.6424385,395.812178 C64.4178628,396.748313 61.7788968,397.692434 60.5614585,399.95158 C59.0760419,402.710295 60.8489585,405.54177 62.2820218,407.900298 C63.9449076,410.637716 65.817207,413.247359 67.8492286,415.722127 C69.5955249,417.849061 71.5725311,420.572282 74.2274693,421.608685 C76.6375002,422.549257 79.2409724,421.547459 80.1061345,419.042522 C80.5293983,417.818891 80.4637348,416.554444 80.2960264,415.291771 C80.0626545,413.536629 80.2827162,412.071644 80.4841437,410.32715 C80.7450233,408.061792 77.1938659,408.080426 76.934761,410.32715 C76.8123073,411.389286 76.5150465,412.458521 76.5088351,413.533079 C76.5017363,414.587229 76.8726468,415.590802 76.8921684,416.636966 C76.9675928,420.683198 72.9292826,416.184426 71.9088351,415.030008 C70.0738042,412.956314 68.3825233,410.761055 66.8429786,408.459317 C65.6193289,406.626977 62.1400465,402.579857 64.5332178,400.7697 C66.5936345,399.213321 69.5076777,398.409398 71.9017363,397.515855 C73.220332,397.023386 74.5486885,396.556649 75.8859184,396.116533 C76.4236499,395.939954 77.4724925,395.401344 77.9960264,395.876953 C78.2533567,396.111209 78.1442132,397.017175 78.1468752,397.309107 C78.1610727,399.414745 77.6952162,401.586933 77.4973382,403.687247 C77.2879246,405.898477 77.1184415,408.113257 76.934761,410.32715 C76.7457564,412.603156 80.2969138,412.590733 80.4841437,410.32715" id="Fill-93" fill="#FFB3F4"></path>
                    <path d="M165.379607,397.071745 C167.97598,392.339606 161.885239,388.473501 157.988905,391.49664 C153.955918,394.624485 155.178681,400.676974 158.945463,403.448111 C163.170116,406.555547 169.16946,404.712559 172.032037,400.632608 C175.301019,395.973229 174.411898,389.383016 171.054182,385.039528 C167.607732,380.582461 161.918959,379.137885 156.741296,381.347341 C151.236204,383.697882 147.787979,389.47175 146.640641,395.16487 C145.511937,400.771031 147.827909,405.933527 152.140409,409.544967 C156.581574,413.262887 163.020155,416.002967 168.805648,414.159979 C174.905263,412.216723 179.496389,406.55111 181.049244,400.458691 C182.716567,393.913732 180.850479,387.115884 176.514908,382.027924 C175.030378,380.286979 172.530726,382.807889 174.004607,384.537298 C179.176057,390.606647 179.47598,399.597091 174.496196,405.890048 C172.162477,408.839538 168.610432,411.285024 164.724746,411.217587 C160.835509,411.151925 156.722662,408.985948 153.908889,406.380742 C151.1173,403.795945 149.356806,400.381493 149.982384,396.506515 C150.587554,392.754877 152.465178,388.778744 155.394306,386.295102 C158.43169,383.720066 162.895926,382.856692 166.283812,385.271121 C169.202292,387.350139 170.813712,391.155018 170.496929,394.693697 C170.14554,398.623689 166.148048,402.995572 161.891451,401.109105 C160.249861,400.380605 158.964985,398.561575 158.98983,396.74432 C159.002253,395.809072 159.445926,394.699021 160.275594,394.186143 C160.997894,393.738928 163.07517,393.895098 162.314715,395.280223 C161.215293,397.283818 164.279298,399.077115 165.379607,397.071745" id="Fill-95" fill="#FFED41"></path>
                </g>
            </g>
        </g>
    </g>
</svg>